<svg data-v-fde0c5aa="" xmlns="http://www.w3.org/2000/svg" viewBox="0 0 300 300" class="font"><!----><defs data-v-fde0c5aa=""><!----></defs><rect data-v-fde0c5aa="" fill="transparent" x="0" y="0" width="300px" height="300px" class="logo-background-square"></rect><defs data-v-fde0c5aa=""><linearGradient data-v-fde0c5aa="" gradientTransform="rotate(25)" id="99f626cb-1079-4074-9448-6968aa9b8956" x1="0%" y1="0%" x2="100%" y2="0%"><stop data-v-fde0c5aa="" offset="0%" stop-color="#4E1A70" stop-opacity="1"></stop><stop data-v-fde0c5aa="" offset="100%" stop-color="#2B4CF2" stop-opacity="1"></stop></linearGradient></defs><g data-v-fde0c5aa="" id="111ba535-be71-4312-b538-0c690607280b" fill="url(#99f626cb-1079-4074-9448-6968aa9b8956)" transform="matrix(2.6595744288376353,0,0,2.6595744288376353,38.484042594585304,127.91223419095769)"><path d="M4.33 13.66Q3.22 13.66 2.19 13.32Q1.16 12.98 0.57 12.43L0.57 12.43L1.09 11.34Q1.65 11.84 2.53 12.16Q3.40 12.47 4.33 12.47L4.33 12.47Q5.54 12.47 6.15 12.06Q6.75 11.65 6.75 10.96L6.75 10.96Q6.75 10.46 6.42 10.14Q6.09 9.83 5.61 9.66Q5.12 9.49 4.24 9.28L4.24 9.28Q3.14 9.02 2.46 8.75Q1.78 8.48 1.29 7.93Q0.81 7.38 0.81 6.44L0.81 6.44Q0.81 5.66 1.23 5.03Q1.64 4.40 2.48 4.02Q3.32 3.64 4.56 3.64L4.56 3.64Q5.43 3.64 6.27 3.86Q7.11 4.09 7.71 4.51L7.71 4.51L7.25 5.63Q6.64 5.24 5.94 5.03Q5.24 4.83 4.56 4.83L4.56 4.83Q3.37 4.83 2.78 5.26Q2.18 5.70 2.18 6.38L2.18 6.38Q2.18 6.89 2.52 7.20Q2.86 7.52 3.35 7.69Q3.85 7.87 4.70 8.06L4.70 8.06Q5.81 8.33 6.48 8.60Q7.15 8.86 7.64 9.41Q8.12 9.95 8.12 10.88L8.12 10.88Q8.12 11.65 7.70 12.29Q7.28 12.92 6.43 13.29Q5.57 13.66 4.33 13.66L4.33 13.66ZM17.19 3.75L18.59 3.75L18.59 13.55L17.19 13.55L17.19 9.18L11.56 9.18L11.56 13.55L10.16 13.55L10.16 3.75L11.56 3.75L11.56 7.97L17.19 7.97L17.19 3.75ZM20.86 10.29L20.86 9.13L24.63 9.13L24.63 10.29L20.86 10.29ZM34.97 13.55L33.45 13.55L31.33 10.54Q30.94 10.57 30.72 10.57L30.72 10.57L28.29 10.57L28.29 13.55L26.89 13.55L26.89 3.75L30.72 3.75Q32.62 3.75 33.71 4.66Q34.80 5.57 34.80 7.17L34.80 7.17Q34.80 8.30 34.24 9.10Q33.68 9.90 32.65 10.26L32.65 10.26L34.97 13.55ZM30.67 9.38Q32.00 9.38 32.70 8.81Q33.40 8.23 33.40 7.17L33.40 7.17Q33.40 6.10 32.70 5.54Q32.00 4.97 30.67 4.97L30.67 4.97L28.29 4.97L28.29 9.38L30.67 9.38ZM43.58 9.88Q43.58 10.04 43.55 10.29L43.55 10.29L37.53 10.29Q37.66 11.27 38.40 11.87Q39.13 12.46 40.22 12.46L40.22 12.46Q41.55 12.46 42.36 11.56L42.36 11.56L43.11 12.43Q42.60 13.02 41.85 13.33Q41.10 13.64 40.18 13.64L40.18 13.64Q39.00 13.64 38.09 13.15Q37.18 12.67 36.69 11.80Q36.19 10.93 36.19 9.84L36.19 9.84Q36.19 8.76 36.67 7.90Q37.16 7.03 38.00 6.54Q38.85 6.06 39.91 6.06L39.91 6.06Q40.98 6.06 41.81 6.54Q42.64 7.03 43.11 7.90Q43.58 8.76 43.58 9.88L43.58 9.88ZM39.91 7.20Q38.95 7.20 38.30 7.78Q37.65 8.37 37.53 9.32L37.53 9.32L42.29 9.32Q42.18 8.39 41.53 7.79Q40.88 7.20 39.91 7.20L39.91 7.20ZM50.55 6.13L51.87 6.13L48.62 13.55L47.25 13.55L44.00 6.13L45.40 6.13L47.95 12.08L50.55 6.13ZM53.13 13.55L53.13 6.13L54.47 6.13L54.47 13.55L53.13 13.55ZM53.80 4.70Q53.41 4.70 53.15 4.45Q52.89 4.20 52.89 3.84L52.89 3.84Q52.89 3.47 53.15 3.21Q53.41 2.95 53.80 2.95L53.80 2.95Q54.19 2.95 54.45 3.20Q54.71 3.44 54.71 3.81L54.71 3.81Q54.71 4.19 54.45 4.45Q54.19 4.70 53.80 4.70L53.80 4.70ZM63.74 9.88Q63.74 10.04 63.71 10.29L63.71 10.29L57.69 10.29Q57.82 11.27 58.55 11.87Q59.29 12.46 60.38 12.46L60.38 12.46Q61.71 12.46 62.52 11.56L62.52 11.56L63.27 12.43Q62.76 13.02 62.01 13.33Q61.26 13.64 60.34 13.64L60.34 13.64Q59.16 13.64 58.25 13.15Q57.34 12.67 56.85 11.80Q56.35 10.93 56.35 9.84L56.35 9.84Q56.35 8.76 56.83 7.90Q57.32 7.03 58.16 6.54Q59.01 6.06 60.07 6.06L60.07 6.06Q61.14 6.06 61.97 6.54Q62.80 7.03 63.27 7.90Q63.74 8.76 63.74 9.88L63.74 9.88ZM60.07 7.20Q59.11 7.20 58.46 7.78Q57.81 8.37 57.69 9.32L57.69 9.32L62.45 9.32Q62.34 8.39 61.69 7.79Q61.04 7.20 60.07 7.20L60.07 7.20ZM75.49 6.13L76.69 6.13L73.92 13.55L72.63 13.55L70.49 7.92L68.32 13.55L67.03 13.55L64.27 6.13L65.55 6.13L67.70 12.04L69.94 6.13L71.08 6.13L73.28 12.07L75.49 6.13ZM80.08 13.64Q79.17 13.64 78.33 13.39Q77.49 13.15 77.01 12.77L77.01 12.77L77.57 11.70Q78.06 12.05 78.76 12.26Q79.46 12.47 80.18 12.47L80.18 12.47Q81.94 12.47 81.94 11.47L81.94 11.47Q81.94 11.13 81.70 10.93Q81.47 10.74 81.11 10.65Q80.75 10.56 80.09 10.44L80.09 10.44Q79.20 10.30 78.63 10.12Q78.06 9.94 77.66 9.51Q77.25 9.07 77.25 8.29L77.25 8.29Q77.25 7.28 78.09 6.67Q78.93 6.06 80.35 6.06L80.35 6.06Q81.09 6.06 81.83 6.24Q82.57 6.43 83.05 6.73L83.05 6.73L82.47 7.80Q81.56 7.21 80.33 7.21L80.33 7.21Q79.48 7.21 79.03 7.49Q78.58 7.77 78.58 8.23L78.58 8.23Q78.58 8.60 78.83 8.81Q79.09 9.02 79.46 9.11Q79.83 9.21 80.50 9.34L80.50 9.34Q81.40 9.49 81.95 9.67Q82.50 9.84 82.89 10.26Q83.29 10.68 83.29 11.44L83.29 11.44Q83.29 12.45 82.42 13.04Q81.56 13.64 80.08 13.64L80.08 13.64Z"></path></g><!----><!----></svg>